<svg width="450" height="95" viewBox="0 0 171 21" fill="none" xmlns="http://www.w3.org/2000/svg">
    <path d="M7.74806 20.336C6.37206 20.336 5.04406 20.168 3.76406 19.832C2.50006 19.48 1.46806 19.032 0.668063 18.488L2.22806 14.984C2.98006 15.464 3.84406 15.864 4.82006 16.184C5.81206 16.488 6.79606 16.64 7.77206 16.64C8.42806 16.64 8.95606 16.584 9.35606 16.472C9.75606 16.344 10.0441 16.184 10.2201 15.992C10.4121 15.784 10.5081 15.544 10.5081 15.272C10.5081 14.888 10.3321 14.584 9.98006 14.36C9.62806 14.136 9.17206 13.952 8.61206 13.808C8.05206 13.664 7.42806 13.52 6.74006 13.376C6.06806 13.232 5.38806 13.048 4.70006 12.824C4.02806 12.6 3.41206 12.312 2.85206 11.96C2.29206 11.592 1.83606 11.12 1.48406 10.544C1.13206 9.952 0.956062 9.208 0.956062 8.312C0.956062 7.304 1.22806 6.392 1.77206 5.576C2.33206 4.76 3.16406 4.104 4.26806 3.608C5.37206 3.112 6.74806 2.864 8.39606 2.864C9.50006 2.864 10.5801 2.992 11.6361 3.248C12.7081 3.488 13.6601 3.848 14.4921 4.328L13.0281 7.856C12.2281 7.424 11.4361 7.104 10.6521 6.896C9.86806 6.672 9.10806 6.56 8.37206 6.56C7.71606 6.56 7.18806 6.632 6.78806 6.776C6.38806 6.904 6.10006 7.08 5.92406 7.304C5.74806 7.528 5.66006 7.784 5.66006 8.072C5.66006 8.44 5.82806 8.736 6.16406 8.96C6.51606 9.168 6.97206 9.344 7.53206 9.488C8.10806 9.616 8.73206 9.752 9.40406 9.896C10.0921 10.04 10.7721 10.224 11.4441 10.448C12.1321 10.656 12.7561 10.944 13.3161 11.312C13.8761 11.664 14.3241 12.136 14.6601 12.728C15.0121 13.304 15.1881 14.032 15.1881 14.912C15.1881 15.888 14.9081 16.792 14.3481 17.624C13.8041 18.44 12.9801 19.096 11.8761 19.592C10.7881 20.088 9.41206 20.336 7.74806 20.336ZM25.6391 6.776C26.6471 6.776 27.5591 6.984 28.3751 7.4C29.1911 7.8 29.8311 8.424 30.2951 9.272C30.7751 10.12 31.0151 11.216 31.0151 12.56V20H26.4551V13.304C26.4551 12.376 26.2631 11.704 25.8791 11.288C25.5111 10.856 24.9911 10.64 24.3191 10.64C23.8391 10.64 23.3991 10.752 22.9991 10.976C22.5991 11.184 22.2871 11.512 22.0631 11.96C21.8391 12.408 21.7271 12.992 21.7271 13.712V20H17.1671V6.992H21.5111V10.688L20.6711 9.608C21.1671 8.664 21.8471 7.96 22.7111 7.496C23.5751 7.016 24.5511 6.776 25.6391 6.776ZM41.8221 20V17.576L41.5101 16.976V12.512C41.5101 11.792 41.2861 11.24 40.8381 10.856C40.4061 10.456 39.7101 10.256 38.7501 10.256C38.1261 10.256 37.4941 10.36 36.8541 10.568C36.2141 10.76 35.6701 11.032 35.2221 11.384L33.6861 8.288C34.4221 7.808 35.3021 7.44 36.3261 7.184C37.3661 6.912 38.3981 6.776 39.4221 6.776C41.5341 6.776 43.1661 7.264 44.3181 8.24C45.4861 9.2 46.0701 10.712 46.0701 12.776V20H41.8221ZM37.9821 20.216C36.9421 20.216 36.0621 20.04 35.3421 19.688C34.6221 19.336 34.0701 18.856 33.6861 18.248C33.3181 17.64 33.1341 16.96 33.1341 16.208C33.1341 15.408 33.3341 14.72 33.7341 14.144C34.1501 13.552 34.7821 13.104 35.6301 12.8C36.4781 12.48 37.5741 12.32 38.9181 12.32H41.9901V14.696H39.5421C38.8061 14.696 38.2861 14.816 37.9821 15.056C37.6941 15.296 37.5501 15.616 37.5501 16.016C37.5501 16.416 37.7021 16.736 38.0061 16.976C38.3101 17.216 38.7261 17.336 39.2541 17.336C39.7501 17.336 40.1981 17.216 40.5981 16.976C41.0141 16.72 41.3181 16.336 41.5101 15.824L42.1341 17.504C41.8941 18.4 41.4221 19.08 40.7181 19.544C40.0301 19.992 39.1181 20.216 37.9821 20.216ZM52.7404 17.6L52.8604 12.152L58.1644 6.992H63.5644L57.6844 13.064L55.3564 14.936L52.7404 17.6ZM48.9484 20V2.192H53.5084V20H48.9484ZM58.5004 20L54.5164 15.008L57.3484 11.504L64.0204 20H58.5004ZM71.655 20.216C70.119 20.216 68.775 19.928 67.623 19.352C66.487 18.76 65.599 17.96 64.959 16.952C64.335 15.928 64.023 14.768 64.023 13.472C64.023 12.176 64.327 11.024 64.935 10.016C65.559 8.992 66.415 8.2 67.503 7.64C68.591 7.064 69.815 6.776 71.175 6.776C72.455 6.776 73.623 7.04 74.679 7.568C75.735 8.08 76.575 8.84 77.199 9.848C77.823 10.856 78.135 12.08 78.135 13.52C78.135 13.68 78.127 13.864 78.111 14.072C78.095 14.28 78.079 14.472 78.063 14.648H67.767V12.248H75.639L73.911 12.92C73.927 12.328 73.815 11.816 73.575 11.384C73.351 10.952 73.031 10.616 72.615 10.376C72.215 10.136 71.743 10.016 71.199 10.016C70.655 10.016 70.175 10.136 69.759 10.376C69.359 10.616 69.047 10.96 68.823 11.408C68.599 11.84 68.487 12.352 68.487 12.944V13.64C68.487 14.28 68.615 14.832 68.871 15.296C69.143 15.76 69.527 16.12 70.023 16.376C70.519 16.616 71.111 16.736 71.799 16.736C72.439 16.736 72.983 16.648 73.431 16.472C73.895 16.28 74.351 15.992 74.799 15.608L77.199 18.104C76.575 18.792 75.807 19.32 74.895 19.688C73.983 20.04 72.903 20.216 71.655 20.216ZM102.288 20.216C100.752 20.216 99.4078 19.928 98.2558 19.352C97.1198 18.76 96.2318 17.96 95.5918 16.952C94.9678 15.928 94.6558 14.768 94.6558 13.472C94.6558 12.176 94.9598 11.024 95.5678 10.016C96.1918 8.992 97.0478 8.2 98.1358 7.64C99.2238 7.064 100.448 6.776 101.808 6.776C103.088 6.776 104.256 7.04 105.312 7.568C106.368 8.08 107.208 8.84 107.832 9.848C108.456 10.856 108.768 12.08 108.768 13.52C108.768 13.68 108.76 13.864 108.744 14.072C108.728 14.28 108.712 14.472 108.696 14.648H98.3998V12.248H106.272L104.544 12.92C104.56 12.328 104.448 11.816 104.208 11.384C103.984 10.952 103.664 10.616 103.248 10.376C102.848 10.136 102.376 10.016 101.832 10.016C101.288 10.016 100.808 10.136 100.392 10.376C99.9918 10.616 99.6798 10.96 99.4558 11.408C99.2318 11.84 99.1198 12.352 99.1198 12.944V13.64C99.1198 14.28 99.2478 14.832 99.5038 15.296C99.7758 15.76 100.16 16.12 100.656 16.376C101.152 16.616 101.744 16.736 102.432 16.736C103.072 16.736 103.616 16.648 104.064 16.472C104.528 16.28 104.984 15.992 105.432 15.608L107.832 18.104C107.208 18.792 106.44 19.32 105.528 19.688C104.616 20.04 103.536 20.216 102.288 20.216ZM117.518 20.216C116.078 20.216 114.79 19.928 113.654 19.352C112.534 18.776 111.654 17.984 111.014 16.976C110.374 15.952 110.054 14.784 110.054 13.472C110.054 12.16 110.374 11 111.014 9.992C111.654 8.984 112.534 8.2 113.654 7.64C114.79 7.064 116.078 6.776 117.518 6.776C118.99 6.776 120.262 7.088 121.334 7.712C122.406 8.336 123.166 9.216 123.614 10.352L120.086 12.152C119.782 11.544 119.406 11.104 118.958 10.832C118.51 10.544 118.022 10.4 117.494 10.4C116.966 10.4 116.486 10.52 116.054 10.76C115.622 11 115.278 11.352 115.022 11.816C114.782 12.264 114.662 12.816 114.662 13.472C114.662 14.144 114.782 14.712 115.022 15.176C115.278 15.64 115.622 15.992 116.054 16.232C116.486 16.472 116.966 16.592 117.494 16.592C118.022 16.592 118.51 16.456 118.958 16.184C119.406 15.896 119.782 15.448 120.086 14.84L123.614 16.64C123.166 17.776 122.406 18.656 121.334 19.28C120.262 19.904 118.99 20.216 117.518 20.216ZM133.756 6.776C134.764 6.776 135.676 6.984 136.492 7.4C137.308 7.8 137.948 8.424 138.412 9.272C138.892 10.12 139.132 11.216 139.132 12.56V20H134.572V13.304C134.572 12.376 134.38 11.704 133.996 11.288C133.628 10.856 133.108 10.64 132.436 10.64C131.956 10.64 131.516 10.752 131.116 10.976C130.716 11.184 130.404 11.512 130.18 11.96C129.956 12.408 129.844 12.992 129.844 13.712V20H125.284V2.192H129.844V10.688L128.788 9.608C129.284 8.664 129.964 7.96 130.828 7.496C131.692 7.016 132.668 6.776 133.756 6.776ZM143.915 20.216C143.147 20.216 142.499 19.96 141.971 19.448C141.443 18.936 141.179 18.288 141.179 17.504C141.179 16.688 141.443 16.04 141.971 15.56C142.499 15.064 143.147 14.816 143.915 14.816C144.683 14.816 145.331 15.064 145.859 15.56C146.387 16.04 146.651 16.688 146.651 17.504C146.651 18.288 146.387 18.936 145.859 19.448C145.331 19.96 144.683 20.216 143.915 20.216ZM148.792 20V6.992H153.352V20H148.792ZM151.072 5.552C150.24 5.552 149.568 5.32 149.056 4.856C148.544 4.392 148.288 3.816 148.288 3.128C148.288 2.44 148.544 1.864 149.056 1.4C149.568 0.935999 150.24 0.704 151.072 0.704C151.904 0.704 152.576 0.927999 153.088 1.376C153.6 1.808 153.856 2.368 153.856 3.056C153.856 3.776 153.6 4.376 153.088 4.856C152.592 5.32 151.92 5.552 151.072 5.552ZM162.844 20.216C161.42 20.216 160.156 19.928 159.052 19.352C157.948 18.776 157.076 17.984 156.436 16.976C155.812 15.952 155.5 14.784 155.5 13.472C155.5 12.16 155.812 11 156.436 9.992C157.076 8.984 157.948 8.2 159.052 7.64C160.156 7.064 161.42 6.776 162.844 6.776C164.268 6.776 165.532 7.064 166.636 7.64C167.756 8.2 168.628 8.984 169.252 9.992C169.876 11 170.188 12.16 170.188 13.472C170.188 14.784 169.876 15.952 169.252 16.976C168.628 17.984 167.756 18.776 166.636 19.352C165.532 19.928 164.268 20.216 162.844 20.216ZM162.844 16.592C163.372 16.592 163.836 16.472 164.236 16.232C164.652 15.992 164.98 15.64 165.22 15.176C165.46 14.696 165.58 14.128 165.58 13.472C165.58 12.816 165.46 12.264 165.22 11.816C164.98 11.352 164.652 11 164.236 10.76C163.836 10.52 163.372 10.4 162.844 10.4C162.332 10.4 161.868 10.52 161.452 10.76C161.052 11 160.724 11.352 160.468 11.816C160.228 12.264 160.108 12.816 160.108 13.472C160.108 14.128 160.228 14.696 160.468 15.176C160.724 15.64 161.052 15.992 161.452 16.232C161.868 16.472 162.332 16.592 162.844 16.592Z" fill="white"/>
    <path d="M84.0294 20V6.968H78.8694V3.2H93.9174V6.968H88.7814V20H84.0294Z" fill="#09BDA7"/>
</svg>
