<svg width="175" height="23" viewBox="0 0 175 23" fill="none" xmlns="http://www.w3.org/2000/svg">
    <path d="M1.86823 21.048C1.08423 20.544 0.692234 19.9 0.692234 19.116C0.692234 18.0333 1.5509 17.3613 3.26823 17.1C3.5669 18.836 4.20157 20.04 5.17223 20.712C6.0309 21.3093 6.93623 21.608 7.88823 21.608C8.8589 21.608 9.68957 21.3187 10.3802 20.74C11.0896 20.1427 11.4442 19.172 11.4442 17.828C11.4442 16.82 11.0802 16.0267 10.3522 15.448C9.6429 14.8507 8.73757 14.328 7.63623 13.88C6.5349 13.432 5.78823 13.124 5.39623 12.956C5.00423 12.7693 4.50023 12.4987 3.88423 12.144C3.2869 11.7893 2.8389 11.4533 2.54023 11.136C1.79357 10.2773 1.42023 9.288 1.42023 8.168C1.42023 6.41333 2.07357 5.088 3.38023 4.192C4.6869 3.296 6.5069 2.848 8.84023 2.848C10.1656 2.848 11.7056 2.99733 13.4602 3.296V7.44H12.5362L11.4162 4.136C10.4829 3.83733 9.5309 3.688 8.56024 3.688C7.60823 3.688 6.77757 3.996 6.06823 4.612C5.3589 5.20933 5.00423 6.10533 5.00423 7.3C5.00423 8.66267 5.62023 9.68 6.85223 10.352C7.46823 10.6693 8.19623 10.9867 9.03623 11.304C9.87623 11.6213 10.4829 11.864 10.8562 12.032C11.2296 12.1813 11.7242 12.4333 12.3402 12.788C12.9562 13.124 13.4136 13.46 13.7122 13.796C14.0109 14.132 14.2816 14.58 14.5242 15.14C14.7669 15.6813 14.8882 16.2787 14.8882 16.932C14.8882 18.5187 14.2162 19.816 12.8722 20.824C11.5282 21.832 9.68957 22.336 7.35623 22.336C5.04157 22.336 3.21223 21.9067 1.86823 21.048ZM27.7184 21.188L27.8864 12.312C27.8864 11.2107 27.7464 10.408 27.4664 9.904C27.1864 9.4 26.6264 9.148 25.7864 9.148C24.9464 9.148 24.125 9.652 23.3224 10.66C22.5384 11.6493 22.1277 12.508 22.0904 13.236V21.188L24.1904 21.356V22H16.6864V21.356L18.5344 21.188V9.26L16.2384 9.148V8.56L21.9784 8.224L21.8384 11.08H22.1184C22.6224 10.1467 23.3037 9.428 24.1624 8.924C25.021 8.40133 25.945 8.14 26.9344 8.14C29.921 8.14 31.4144 9.57733 31.4144 12.452C31.4144 14.524 31.349 17.436 31.2184 21.188L33.1504 21.356V22H26.3744V21.356L27.7184 21.188ZM42.6065 15.448C40.4412 15.448 39.0785 16.0173 38.5185 17.156C38.2758 17.6413 38.1545 18.248 38.1545 18.976C38.1545 20.2267 38.5838 20.9547 39.4425 21.16C39.5732 21.1973 39.7132 21.216 39.8625 21.216C40.4598 21.216 41.0572 20.908 41.6545 20.292C42.2518 19.6573 42.5692 18.8453 42.6065 17.856V15.448ZM38.1265 12.704C37.7158 12.984 37.2865 13.124 36.8385 13.124C36.3905 13.124 36.0078 12.9747 35.6905 12.676C35.3732 12.3773 35.2145 11.9387 35.2145 11.36C35.2145 10.7627 35.3918 10.2307 35.7465 9.764C36.1012 9.29733 36.5585 8.952 37.1185 8.728C38.2198 8.26133 39.2652 8.028 40.2545 8.028C42.4572 8.028 43.9598 8.42 44.7625 9.204C45.5652 9.96933 45.9665 11.1547 45.9665 12.76V21.188L48.3185 21.356V21.972L42.9705 22.308L42.7185 19.956C41.8412 21.5427 40.3292 22.336 38.1825 22.336C37.2118 22.336 36.3718 22.0467 35.6625 21.468C34.9718 20.8707 34.6265 20.04 34.6265 18.976C34.6452 17.5573 35.3545 16.4933 36.7545 15.784C38.1545 15.056 40.1052 14.692 42.6065 14.692V12.284C42.6065 11.1453 42.4478 10.268 42.1305 9.652C41.8132 9.036 41.2252 8.728 40.3665 8.728C39.5078 8.728 38.8638 9.08267 38.4345 9.792C38.1545 10.2587 38.0145 10.7533 38.0145 11.276C38.0145 11.7987 38.0518 12.2747 38.1265 12.704ZM58.2454 8.336H63.7334V9.064L61.6614 9.596L56.5094 13.908L62.7254 21.16L64.6014 21.356V22H57.4614V21.356L59.0294 21.188L54.1014 15.532V21.16L55.6414 21.356V22H48.6974V21.356L50.5174 21.188V1.84L48.1094 1.672V0.971999L54.1014 0.496V14.748L60.0654 9.596L58.2454 9.064V8.336ZM73.8405 12.228C73.8405 9.95067 73.0472 8.812 71.4605 8.812C69.7992 8.812 68.7912 10.268 68.4365 13.18H73.7845C73.8218 12.8067 73.8405 12.4893 73.8405 12.228ZM71.2085 22.308C69.2112 22.308 67.5872 21.6547 66.3365 20.348C65.1045 19.0413 64.4885 17.3147 64.4885 15.168C64.4885 13.0213 65.1325 11.2947 66.4205 9.988C67.7272 8.68133 69.3792 8.028 71.3765 8.028C73.3738 8.028 74.8672 8.45733 75.8565 9.316C76.8458 10.156 77.3405 11.332 77.3405 12.844C77.3405 13.2733 77.3032 13.7213 77.2285 14.188H68.3525V15.168C68.3525 17.2587 68.6138 18.8453 69.1365 19.928C69.6592 20.992 70.4432 21.524 71.4885 21.524C72.5525 21.524 73.5138 21.3093 74.3725 20.88C75.2498 20.432 75.9312 19.8067 76.4165 19.004C76.8272 19.1347 77.0325 19.3307 77.0325 19.592C77.0325 20.0587 76.5938 20.6 75.7165 21.216C75.2872 21.5147 74.6712 21.776 73.8685 22C73.0845 22.2053 72.1978 22.308 71.2085 22.308ZM106.708 12.228C106.708 9.95067 105.914 8.812 104.328 8.812C102.666 8.812 101.658 10.268 101.304 13.18H106.652C106.689 12.8067 106.708 12.4893 106.708 12.228ZM104.076 22.308C102.078 22.308 100.454 21.6547 99.2037 20.348C97.9717 19.0413 97.3557 17.3147 97.3557 15.168C97.3557 13.0213 97.9997 11.2947 99.2877 9.988C100.594 8.68133 102.246 8.028 104.244 8.028C106.241 8.028 107.734 8.45733 108.724 9.316C109.713 10.156 110.208 11.332 110.208 12.844C110.208 13.2733 110.17 13.7213 110.096 14.188H101.22V15.168C101.22 17.2587 101.481 18.8453 102.004 19.928C102.526 20.992 103.31 21.524 104.356 21.524C105.42 21.524 106.381 21.3093 107.24 20.88C108.117 20.432 108.798 19.8067 109.284 19.004C109.694 19.1347 109.9 19.3307 109.9 19.592C109.9 20.0587 109.461 20.6 108.584 21.216C108.154 21.5147 107.538 21.776 106.736 22C105.952 22.2053 105.065 22.308 104.076 22.308ZM121.747 12.872C121.841 12.4987 121.887 12.0787 121.887 11.612C121.887 11.1267 121.747 10.632 121.467 10.128C121.057 9.30667 120.431 8.896 119.591 8.896C117.351 8.896 116.231 11.0053 116.231 15.224C116.231 19.424 117.379 21.524 119.675 21.524C121.411 21.524 122.802 20.684 123.847 19.004C124.258 19.1347 124.463 19.34 124.463 19.62C124.463 19.8813 124.286 20.2173 123.931 20.628C123.595 21.02 122.998 21.4027 122.139 21.776C121.299 22.1307 120.329 22.308 119.227 22.308C117.118 22.308 115.447 21.664 114.215 20.376C113.002 19.0693 112.395 17.3333 112.395 15.168C112.395 12.984 113.03 11.248 114.299 9.96C115.569 8.672 117.351 8.028 119.647 8.028C120.357 8.028 121.057 8.12133 121.747 8.308C122.438 8.476 123.091 8.84933 123.707 9.428C124.323 10.0067 124.631 10.7067 124.631 11.528C124.631 12.3307 124.267 12.8533 123.539 13.096C123.278 13.1893 122.989 13.236 122.671 13.236C122.354 13.236 122.046 13.1147 121.747 12.872ZM137.057 21.188L137.225 12.312C137.225 11.2107 137.085 10.408 136.805 9.904C136.525 9.4 135.965 9.148 135.125 9.148C134.285 9.148 133.455 9.66133 132.633 10.688C131.831 11.7147 131.429 12.6013 131.429 13.348V21.188L133.529 21.356V22H126.025V21.356L127.873 21.188V1.896L125.465 1.812V1.14L131.457 0.496V6.768C131.457 8.87733 131.401 10.3053 131.289 11.052H131.457C131.961 10.1187 132.643 9.4 133.501 8.896C134.36 8.392 135.284 8.14 136.273 8.14C139.26 8.14 140.753 9.57733 140.753 12.452C140.753 14.524 140.688 17.436 140.557 21.188L142.489 21.356V22H135.713V21.356L137.057 21.188ZM148.398 20.348C148.398 20.8707 148.202 21.3373 147.81 21.748C147.437 22.14 146.97 22.336 146.41 22.336C145.85 22.336 145.374 22.14 144.982 21.748C144.609 21.356 144.422 20.8893 144.422 20.348C144.422 19.788 144.618 19.312 145.01 18.92C145.402 18.528 145.869 18.332 146.41 18.332C146.951 18.332 147.418 18.5373 147.81 18.948C148.202 19.34 148.398 19.8067 148.398 20.348ZM157.978 22H150.754V21.356L152.574 21.188V9.26L150.166 9.12V8.532L156.158 8.168V21.188L157.978 21.356V22ZM156.354 3.464C156.354 4.024 156.149 4.50933 155.738 4.92C155.346 5.33067 154.851 5.536 154.254 5.536C153.657 5.536 153.153 5.34 152.742 4.948C152.35 4.53733 152.154 4.04267 152.154 3.464C152.154 2.86667 152.359 2.36267 152.77 1.952C153.181 1.52267 153.675 1.308 154.254 1.308C154.833 1.308 155.327 1.52267 155.738 1.952C156.149 2.38133 156.354 2.88533 156.354 3.464ZM172.219 20.292C170.912 21.636 169.129 22.308 166.871 22.308C164.612 22.308 162.829 21.636 161.523 20.292C160.216 18.948 159.563 17.24 159.563 15.168C159.563 13.096 160.216 11.388 161.523 10.044C162.829 8.7 164.612 8.028 166.871 8.028C169.129 8.028 170.912 8.7 172.219 10.044C173.525 11.388 174.179 13.096 174.179 15.168C174.179 17.24 173.525 18.948 172.219 20.292ZM163.455 15.168C163.455 19.48 164.593 21.636 166.871 21.636C169.148 21.636 170.287 19.48 170.287 15.168C170.287 13.0587 170.035 11.4627 169.531 10.38C169.027 9.27867 168.14 8.728 166.871 8.728C165.601 8.728 164.715 9.27867 164.211 10.38C163.707 11.4627 163.455 13.0587 163.455 15.168Z" fill="white"/>
    <path d="M95.8522 7.524H95.0122L93.6962 4.304L89.1882 4.248V21.076L91.7922 21.328V22H82.8602V21.328L85.4642 21.076V4.248L80.9562 4.304L79.6402 7.524H78.8282V3.296L87.3402 3.24L95.8522 3.296V7.524Z" fill="#09BDA7"/>
</svg>
